<?xml version="1.0" encoding="UTF-8" standalone="no"?>
<!-- Generator: Adobe Illustrator 19.0.0, SVG Export Plug-In . SVG Version: 6.00 Build 0)  -->

<svg
   xmlns:dc="http://purl.org/dc/elements/1.1/"
   xmlns:cc="http://creativecommons.org/ns#"
   xmlns:rdf="http://www.w3.org/1999/02/22-rdf-syntax-ns#"
   xmlns:svg="http://www.w3.org/2000/svg"
   xmlns="http://www.w3.org/2000/svg"
   xmlns:sodipodi="http://sodipodi.sourceforge.net/DTD/sodipodi-0.dtd"
   xmlns:inkscape="http://www.inkscape.org/namespaces/inkscape"
   version="1.1"
   id="Capa_1"
   x="0px"
   y="0px"
   viewBox="0 0 563.43 563.43"
   style="enable-background:new 0 0 563.43 563.43;"
   xml:space="preserve"
   inkscape:version="0.91 r13725"
   sodipodi:docname="profile.svg"><metadata
     id="metadata4344"><rdf:RDF><cc:Work
         rdf:about=""><dc:format>image/svg+xml</dc:format><dc:type
           rdf:resource="http://purl.org/dc/dcmitype/StillImage" /><dc:title></dc:title></cc:Work></rdf:RDF></metadata><defs
     id="defs4342"><marker
       inkscape:isstock="true"
       style="overflow:visible"
       id="marker5235"
       refX="0.0"
       refY="0.0"
       orient="auto"
       inkscape:stockid="Arrow1Lstart"><path
         transform="scale(0.8) translate(12.5,0)"
         style="fill-rule:evenodd;stroke:none;stroke-width:1pt;stroke-opacity:1;fill:#263238;fill-opacity:1"
         d="M 0.0,0.0 L 5.0,-5.0 L -12.5,0.0 L 5.0,5.0 L 0.0,0.0 z "
         id="path5237" /></marker><marker
       inkscape:stockid="Arrow1Lstart"
       orient="auto"
       refY="0.0"
       refX="0.0"
       id="Arrow1Lstart"
       style="overflow:visible"
       inkscape:isstock="true"
       inkscape:collect="always"><path
         id="path4959"
         d="M 0.0,0.0 L 5.0,-5.0 L -12.5,0.0 L 5.0,5.0 L 0.0,0.0 z "
         style="fill-rule:evenodd;stroke:none;stroke-width:1pt;stroke-opacity:1;fill:#ffffff;fill-opacity:1"
         transform="scale(0.8) translate(12.5,0)" /></marker></defs><sodipodi:namedview
     pagecolor="#ffffff"
     bordercolor="#666666"
     borderopacity="1"
     objecttolerance="10"
     gridtolerance="10"
     guidetolerance="10"
     inkscape:pageopacity="0"
     inkscape:pageshadow="2"
     inkscape:window-width="1280"
     inkscape:window-height="745"
     id="namedview4340"
     showgrid="false"
     inkscape:zoom="0.41886304"
     inkscape:cx="281.715"
     inkscape:cy="377.21161"
     inkscape:window-x="0"
     inkscape:window-y="0"
     inkscape:window-maximized="1"
     inkscape:current-layer="Capa_1" /><path
     d="m 284.10242,306.44791 c 71.78164,0 130.00368,-58.22291 130.00368,-130.00369 0,-71.78078 -58.2229,-129.605407 -130.00368,-129.605407 -71.78078,0 -130.00369,58.222907 -130.00369,129.605407 0,71.3825 58.22204,130.00369 130.00369,130.00369 z m 0,-225.712258 c 52.63924,0 95.70857,43.068468 95.70857,95.708568 0,52.6401 -43.06933,95.70771 -95.70857,95.70771 -52.63924,0 -95.70857,-43.06847 -95.70857,-95.70857 0,-52.6401 43.06847,-95.707708 95.70857,-95.707708 z"
     id="path4306"
     style="fill:#263238;fill-opacity:1;marker-mid:url(#Arrow1Lstart);opacity:0.96"
     inkscape:connector-curvature="0" /><path
     d="m 58.39016,509.42894 451.42452,0 c 9.57077,0 17.14755,-7.57679 17.14755,-17.14756 0,-89.72662 -72.97734,-163.10311 -163.1031,-163.10311 l -159.51342,0 c -89.72663,0 -163.103109,72.97734 -163.103109,163.10311 0,9.57077 7.576789,17.14756 17.147559,17.14756 z m 145.95555,-145.95555 159.51342,0 c 65.40055,0 119.23635,48.65214 127.61142,111.65957 l -414.736269,0 C 85.10849,412.52467 138.94515,363.47339 204.34571,363.47339 Z"
     id="path4308"
     style="fill:#263238;fill-opacity:1;marker-mid:url(#marker5235);opacity:0.96"
     inkscape:connector-curvature="0" /><g
     id="g4310"
     style="fill:#263238;fill-opacity:1"
     transform="matrix(0.86207627,0,0,0.86207627,35.811228,35.27406)" /><g
     id="g4312"
     style="fill:#263238;fill-opacity:1"
     transform="matrix(0.86207627,0,0,0.86207627,35.811228,35.27406)" /><g
     id="g4314"
     style="fill:#263238;fill-opacity:1"
     transform="matrix(0.86207627,0,0,0.86207627,35.811228,35.27406)" /><g
     id="g4316"
     style="fill:#263238;fill-opacity:1"
     transform="matrix(0.86207627,0,0,0.86207627,35.811228,35.27406)" /><g
     id="g4318"
     style="fill:#263238;fill-opacity:1"
     transform="matrix(0.86207627,0,0,0.86207627,35.811228,35.27406)" /><g
     id="g4320"
     style="fill:#263238;fill-opacity:1"
     transform="matrix(0.86207627,0,0,0.86207627,35.811228,35.27406)" /><g
     id="g4322"
     style="fill:#263238;fill-opacity:1"
     transform="matrix(0.86207627,0,0,0.86207627,35.811228,35.27406)" /><g
     id="g4324"
     style="fill:#263238;fill-opacity:1"
     transform="matrix(0.86207627,0,0,0.86207627,35.811228,35.27406)" /><g
     id="g4326"
     style="fill:#263238;fill-opacity:1"
     transform="matrix(0.86207627,0,0,0.86207627,35.811228,35.27406)" /><g
     id="g4328"
     style="fill:#263238;fill-opacity:1"
     transform="matrix(0.86207627,0,0,0.86207627,35.811228,35.27406)" /><g
     id="g4330"
     style="fill:#263238;fill-opacity:1"
     transform="matrix(0.86207627,0,0,0.86207627,35.811228,35.27406)" /><g
     id="g4332"
     style="fill:#263238;fill-opacity:1"
     transform="matrix(0.86207627,0,0,0.86207627,35.811228,35.27406)" /><g
     id="g4334"
     style="fill:#263238;fill-opacity:1"
     transform="matrix(0.86207627,0,0,0.86207627,35.811228,35.27406)" /><g
     id="g4336"
     style="fill:#263238;fill-opacity:1"
     transform="matrix(0.86207627,0,0,0.86207627,35.811228,35.27406)" /><g
     id="g4338"
     style="fill:#263238;fill-opacity:1"
     transform="matrix(0.86207627,0,0,0.86207627,35.811228,35.27406)" /></svg>